solid OpenSCAD_Model
  facet normal 0.904827 0.42578 0
    outer loop
      vertex 34.8666 13.8047 35
      vertex 32.8615 18.0658 0
      vertex 32.8615 18.0658 35
    endloop
  endfacet
  facet normal 0.904827 0.42578 0
    outer loop
      vertex 32.8615 18.0658 0
      vertex 34.8666 13.8047 35
      vertex 34.8666 13.8047 0
    endloop
  endfacet
  facet normal 0.998027 -0.0627908 0
    outer loop
      vertex 37.2043 -4.7 35
      vertex 37.5 0 9.9
      vertex 37.5 0 35
    endloop
  endfacet
  facet normal 0.998027 -0.0627908 0
    outer loop
      vertex 37.5 0 9.9
      vertex 37.2043 -4.7 35
      vertex 37.2043 -4.7 9.9
    endloop
  endfacet
  facet normal 0.844328 0.535827 0
    outer loop
      vertex 32.8615 18.0658 35
      vertex 30.3381 22.0419 0
      vertex 30.3381 22.0419 35
    endloop
  endfacet
  facet normal 0.844328 0.535827 0
    outer loop
      vertex 30.3381 22.0419 0
      vertex 32.8615 18.0658 35
      vertex 32.8615 18.0658 0
    endloop
  endfacet
  facet normal 0.248689 0.968583 -0
    outer loop
      vertex 11.5881 35.6646 0
      vertex 7.0268 36.8358 35
      vertex 11.5881 35.6646 35
    endloop
  endfacet
  facet normal 0.248689 0.968583 0
    outer loop
      vertex 7.0268 36.8358 35
      vertex 11.5881 35.6646 0
      vertex 7.0268 36.8358 0
    endloop
  endfacet
  facet normal 0.368124 0.929777 -0
    outer loop
      vertex 15.9667 33.931 0
      vertex 11.5881 35.6646 35
      vertex 15.9667 33.931 35
    endloop
  endfacet
  facet normal 0.368124 0.929777 0
    outer loop
      vertex 11.5881 35.6646 35
      vertex 15.9667 33.931 0
      vertex 11.5881 35.6646 0
    endloop
  endfacet
  facet normal -0.368124 0.929777 0
    outer loop
      vertex -11.5881 35.6646 0
      vertex -15.9667 33.931 35
      vertex -11.5881 35.6646 35
    endloop
  endfacet
  facet normal -0.368124 0.929777 0
    outer loop
      vertex -15.9667 33.931 35
      vertex -11.5881 35.6646 0
      vertex -15.9667 33.931 0
    endloop
  endfacet
  facet normal -0.904827 0.42578 0
    outer loop
      vertex -34.8666 13.8047 0
      vertex -32.8615 18.0658 35
      vertex -32.8615 18.0658 0
    endloop
  endfacet
  facet normal -0.904827 0.42578 0
    outer loop
      vertex -32.8615 18.0658 35
      vertex -34.8666 13.8047 0
      vertex -34.8666 13.8047 35
    endloop
  endfacet
  facet normal 0.125334 0.992115 -0
    outer loop
      vertex 7.0268 36.8358 0
      vertex 2.35464 37.426 35
      vertex 7.0268 36.8358 35
    endloop
  endfacet
  facet normal 0.125334 0.992115 0
    outer loop
      vertex 2.35464 37.426 35
      vertex 7.0268 36.8358 0
      vertex 2.35464 37.426 0
    endloop
  endfacet
  facet normal 0.481754 0.876307 -0
    outer loop
      vertex 20.0935 31.6623 0
      vertex 15.9667 33.931 35
      vertex 20.0935 31.6623 35
    endloop
  endfacet
  facet normal 0.481754 0.876307 0
    outer loop
      vertex 15.9667 33.931 35
      vertex 20.0935 31.6623 0
      vertex 15.9667 33.931 0
    endloop
  endfacet
  facet normal -0.998027 0.0627908 0
    outer loop
      vertex -37.5 0 0
      vertex -37.2043 4.7 35
      vertex -37.2043 4.7 0
    endloop
  endfacet
  facet normal -0.998027 0.0627908 0
    outer loop
      vertex -37.2043 4.7 35
      vertex -37.5 0 0
      vertex -37.5 0 35
    endloop
  endfacet
  facet normal -0.770513 0.637424 0
    outer loop
      vertex -30.3381 22.0419 0
      vertex -27.3363 25.6705 35
      vertex -27.3363 25.6705 0
    endloop
  endfacet
  facet normal -0.770513 0.637424 0
    outer loop
      vertex -27.3363 25.6705 35
      vertex -30.3381 22.0419 0
      vertex -30.3381 22.0419 35
    endloop
  endfacet
  facet normal -0.125334 0.992115 0
    outer loop
      vertex -2.35464 37.426 0
      vertex -7.0268 36.8358 35
      vertex -2.35464 37.426 35
    endloop
  endfacet
  facet normal -0.125334 0.992115 0
    outer loop
      vertex -7.0268 36.8358 35
      vertex -2.35464 37.426 0
      vertex -7.0268 36.8358 0
    endloop
  endfacet
  facet normal -0.684547 0.728969 0
    outer loop
      vertex -23.9034 28.8942 0
      vertex -27.3363 25.6705 35
      vertex -23.9034 28.8942 35
    endloop
  endfacet
  facet normal -0.684547 0.728969 0
    outer loop
      vertex -27.3363 25.6705 35
      vertex -23.9034 28.8942 0
      vertex -27.3363 25.6705 0
    endloop
  endfacet
  facet normal 0.481754 -0.876307 0
    outer loop
      vertex 15.9667 -33.931 0
      vertex 20.0935 -31.6623 35
      vertex 15.9667 -33.931 35
    endloop
  endfacet
  facet normal 0.481754 -0.876307 0
    outer loop
      vertex 20.0935 -31.6623 35
      vertex 15.9667 -33.931 0
      vertex 20.0935 -31.6623 0
    endloop
  endfacet
  facet normal 0.951057 0.309017 0
    outer loop
      vertex 36.3219 9.32587 35
      vertex 34.8666 13.8047 0
      vertex 34.8666 13.8047 35
    endloop
  endfacet
  facet normal 0.951057 0.309017 0
    outer loop
      vertex 34.8666 13.8047 0
      vertex 36.3219 9.32587 35
      vertex 36.3219 9.32587 0
    endloop
  endfacet
  facet normal 0.684547 0.728969 -0
    outer loop
      vertex 27.3363 25.6705 0
      vertex 23.9034 28.8942 35
      vertex 27.3363 25.6705 35
    endloop
  endfacet
  facet normal 0.684547 0.728969 0
    outer loop
      vertex 23.9034 28.8942 35
      vertex 27.3363 25.6705 0
      vertex 23.9034 28.8942 0
    endloop
  endfacet
  facet normal 0.770513 0.637424 0
    outer loop
      vertex 30.3381 22.0419 35
      vertex 27.3363 25.6705 0
      vertex 27.3363 25.6705 35
    endloop
  endfacet
  facet normal 0.770513 0.637424 0
    outer loop
      vertex 27.3363 25.6705 0
      vertex 30.3381 22.0419 35
      vertex 30.3381 22.0419 0
    endloop
  endfacet
  facet normal 0 1 -0
    outer loop
      vertex 2.35464 37.426 0
      vertex -2.35464 37.426 35
      vertex 2.35464 37.426 35
    endloop
  endfacet
  facet normal 0 1 0
    outer loop
      vertex -2.35464 37.426 35
      vertex 2.35464 37.426 0
      vertex -2.35464 37.426 0
    endloop
  endfacet
  facet normal 0.587785 0.809017 -0
    outer loop
      vertex 23.9034 28.8942 0
      vertex 20.0935 31.6623 35
      vertex 23.9034 28.8942 35
    endloop
  endfacet
  facet normal 0.587785 0.809017 0
    outer loop
      vertex 20.0935 31.6623 35
      vertex 23.9034 28.8942 0
      vertex 20.0935 31.6623 0
    endloop
  endfacet
  facet normal 0 0 1
    outer loop
      vertex 25 0 35
      vertex 37.5 0 35
      vertex 37.2043 4.7 35
    endloop
  endfacet
  facet normal 0 0 1
    outer loop
      vertex 24.8029 3.13333 35
      vertex 37.2043 4.7 35
      vertex 36.3219 9.32587 35
    endloop
  endfacet
  facet normal 0 0 1
    outer loop
      vertex 37.5 0 35
      vertex 25 0 35
      vertex 37.2043 -4.7 35
    endloop
  endfacet
  facet normal 0 0 1
    outer loop
      vertex 24.2146 6.21725 35
      vertex 36.3219 9.32587 35
      vertex 34.8666 13.8047 35
    endloop
  endfacet
  facet normal -0 0 1
    outer loop
      vertex 24.8029 -3.13333 35
      vertex 37.2043 -4.7 35
      vertex 25 0 35
    endloop
  endfacet
  facet normal 0 0 1
    outer loop
      vertex 23.2444 9.20311 35
      vertex 34.8666 13.8047 35
      vertex 32.8615 18.0658 35
    endloop
  endfacet
  facet normal 0 0 1
    outer loop
      vertex 37.2043 -4.7 35
      vertex 24.8029 -3.13333 35
      vertex 36.3219 -9.32587 35
    endloop
  endfacet
  facet normal 0 0 1
    outer loop
      vertex 21.9077 12.0438 35
      vertex 32.8615 18.0658 35
      vertex 30.3381 22.0419 35
    endloop
  endfacet
  facet normal -0 0 1
    outer loop
      vertex 24.2146 -6.21725 35
      vertex 36.3219 -9.32587 35
      vertex 24.8029 -3.13333 35
    endloop
  endfacet
  facet normal 0 0 1
    outer loop
      vertex 20.2254 14.6946 35
      vertex 30.3381 22.0419 35
      vertex 27.3363 25.6705 35
    endloop
  endfacet
  facet normal 0 0 1
    outer loop
      vertex 36.3219 -9.32587 35
      vertex 24.2146 -6.21725 35
      vertex 34.8666 -13.8047 35
    endloop
  endfacet
  facet normal -0 0 1
    outer loop
      vertex 23.2444 -9.20311 35
      vertex 34.8666 -13.8047 35
      vertex 24.2146 -6.21725 35
    endloop
  endfacet
  facet normal 0 0 1
    outer loop
      vertex 37.2043 4.7 35
      vertex 24.8029 3.13333 35
      vertex 25 0 35
    endloop
  endfacet
  facet normal 0 0 1
    outer loop
      vertex 36.3219 9.32587 35
      vertex 24.2146 6.21725 35
      vertex 24.8029 3.13333 35
    endloop
  endfacet
  facet normal 0 0 1
    outer loop
      vertex 18.2242 17.1137 35
      vertex 27.3363 25.6705 35
      vertex 23.9034 28.8942 35
    endloop
  endfacet
  facet normal 0 0 1
    outer loop
      vertex 34.8666 13.8047 35
      vertex 23.2444 9.20311 35
      vertex 24.2146 6.21725 35
    endloop
  endfacet
  facet normal 0 0 1
    outer loop
      vertex 32.8615 18.0658 35
      vertex 21.9077 12.0438 35
      vertex 23.2444 9.20311 35
    endloop
  endfacet
  facet normal 0 0 1
    outer loop
      vertex 30.3381 22.0419 35
      vertex 20.2254 14.6946 35
      vertex 21.9077 12.0438 35
    endloop
  endfacet
  facet normal 0 0 1
    outer loop
      vertex 15.9356 19.2628 35
      vertex 23.9034 28.8942 35
      vertex 20.0935 31.6623 35
    endloop
  endfacet
  facet normal 0 0 1
    outer loop
      vertex 27.3363 25.6705 35
      vertex 18.2242 17.1137 35
      vertex 20.2254 14.6946 35
    endloop
  endfacet
  facet normal 0 0 1
    outer loop
      vertex 13.3957 21.1082 35
      vertex 20.0935 31.6623 35
      vertex 15.9667 33.931 35
    endloop
  endfacet
  facet normal 0 0 1
    outer loop
      vertex 23.9034 28.8942 35
      vertex 15.9356 19.2628 35
      vertex 18.2242 17.1137 35
    endloop
  endfacet
  facet normal 0 0 1
    outer loop
      vertex 20.0935 31.6623 35
      vertex 13.3957 21.1082 35
      vertex 15.9356 19.2628 35
    endloop
  endfacet
  facet normal 0 0 1
    outer loop
      vertex 10.6445 22.6207 35
      vertex 15.9667 33.931 35
      vertex 11.5881 35.6646 35
    endloop
  endfacet
  facet normal 0 0 1
    outer loop
      vertex 15.9667 33.931 35
      vertex 10.6445 22.6207 35
      vertex 13.3957 21.1082 35
    endloop
  endfacet
  facet normal 0 0 1
    outer loop
      vertex 11.5881 35.6646 35
      vertex 7.72542 23.7764 35
      vertex 10.6445 22.6207 35
    endloop
  endfacet
  facet normal 0 0 1
    outer loop
      vertex 7.0268 36.8358 35
      vertex 7.72542 23.7764 35
      vertex 11.5881 35.6646 35
    endloop
  endfacet
  facet normal 0 0 1
    outer loop
      vertex 7.0268 36.8358 35
      vertex 4.68453 24.5572 35
      vertex 7.72542 23.7764 35
    endloop
  endfacet
  facet normal 0 0 1
    outer loop
      vertex 2.35464 37.426 35
      vertex 4.68453 24.5572 35
      vertex 7.0268 36.8358 35
    endloop
  endfacet
  facet normal 0 0 1
    outer loop
      vertex 2.35464 37.426 35
      vertex 1.56976 24.9507 35
      vertex 4.68453 24.5572 35
    endloop
  endfacet
  facet normal 0 0 1
    outer loop
      vertex 2.35464 37.426 35
      vertex -1.56976 24.9507 35
      vertex 1.56976 24.9507 35
    endloop
  endfacet
  facet normal -0 0 1
    outer loop
      vertex -2.35464 37.426 35
      vertex -1.56976 24.9507 35
      vertex 2.35464 37.426 35
    endloop
  endfacet
  facet normal 0 0 1
    outer loop
      vertex -2.35464 37.426 35
      vertex -4.68453 24.5572 35
      vertex -1.56976 24.9507 35
    endloop
  endfacet
  facet normal -0 0 1
    outer loop
      vertex -7.0268 36.8358 35
      vertex -4.68453 24.5572 35
      vertex -2.35464 37.426 35
    endloop
  endfacet
  facet normal 0 0 1
    outer loop
      vertex -7.0268 36.8358 35
      vertex -7.72542 23.7764 35
      vertex -4.68453 24.5572 35
    endloop
  endfacet
  facet normal -0 0 1
    outer loop
      vertex -11.5881 35.6646 35
      vertex -7.72542 23.7764 35
      vertex -7.0268 36.8358 35
    endloop
  endfacet
  facet normal 0 0 1
    outer loop
      vertex -7.72542 23.7764 35
      vertex -11.5881 35.6646 35
      vertex -10.6445 22.6207 35
    endloop
  endfacet
  facet normal -0 0 1
    outer loop
      vertex -15.9667 33.931 35
      vertex -10.6445 22.6207 35
      vertex -11.5881 35.6646 35
    endloop
  endfacet
  facet normal 0 0 1
    outer loop
      vertex -10.6445 22.6207 35
      vertex -15.9667 33.931 35
      vertex -13.3957 21.1082 35
    endloop
  endfacet
  facet normal -0 0 1
    outer loop
      vertex -20.0935 31.6623 35
      vertex -13.3957 21.1082 35
      vertex -15.9667 33.931 35
    endloop
  endfacet
  facet normal 0 0 1
    outer loop
      vertex -13.3957 21.1082 35
      vertex -20.0935 31.6623 35
      vertex -15.9356 19.2628 35
    endloop
  endfacet
  facet normal -0 0 1
    outer loop
      vertex -23.9034 28.8942 35
      vertex -15.9356 19.2628 35
      vertex -20.0935 31.6623 35
    endloop
  endfacet
  facet normal 0 0 1
    outer loop
      vertex -15.9356 19.2628 35
      vertex -23.9034 28.8942 35
      vertex -18.2242 17.1137 35
    endloop
  endfacet
  facet normal -0 0 1
    outer loop
      vertex -27.3363 25.6705 35
      vertex -18.2242 17.1137 35
      vertex -23.9034 28.8942 35
    endloop
  endfacet
  facet normal 0 0 1
    outer loop
      vertex -18.2242 17.1137 35
      vertex -27.3363 25.6705 35
      vertex -20.2254 14.6946 35
    endloop
  endfacet
  facet normal -0 0 1
    outer loop
      vertex -30.3381 22.0419 35
      vertex -20.2254 14.6946 35
      vertex -27.3363 25.6705 35
    endloop
  endfacet
  facet normal 0 0 1
    outer loop
      vertex -20.2254 14.6946 35
      vertex -30.3381 22.0419 35
      vertex -21.9077 12.0438 35
    endloop
  endfacet
  facet normal -0 0 1
    outer loop
      vertex -32.8615 18.0658 35
      vertex -21.9077 12.0438 35
      vertex -30.3381 22.0419 35
    endloop
  endfacet
  facet normal 0 0 1
    outer loop
      vertex -21.9077 12.0438 35
      vertex -32.8615 18.0658 35
      vertex -23.2444 9.20311 35
    endloop
  endfacet
  facet normal -0 0 1
    outer loop
      vertex -34.8666 13.8047 35
      vertex -23.2444 9.20311 35
      vertex -32.8615 18.0658 35
    endloop
  endfacet
  facet normal 0 0 1
    outer loop
      vertex 34.8666 -13.8047 35
      vertex 23.2444 -9.20311 35
      vertex 32.8615 -18.0658 35
    endloop
  endfacet
  facet normal -0 0 1
    outer loop
      vertex 21.9077 -12.0438 35
      vertex 32.8615 -18.0658 35
      vertex 23.2444 -9.20311 35
    endloop
  endfacet
  facet normal 0 0 1
    outer loop
      vertex 32.8615 -18.0658 35
      vertex 21.9077 -12.0438 35
      vertex 30.3381 -22.0419 35
    endloop
  endfacet
  facet normal -0 0 1
    outer loop
      vertex 20.2254 -14.6946 35
      vertex 30.3381 -22.0419 35
      vertex 21.9077 -12.0438 35
    endloop
  endfacet
  facet normal 0 0 1
    outer loop
      vertex 30.3381 -22.0419 35
      vertex 20.2254 -14.6946 35
      vertex 27.3363 -25.6705 35
    endloop
  endfacet
  facet normal -0 0 1
    outer loop
      vertex 18.2242 -17.1137 35
      vertex 27.3363 -25.6705 35
      vertex 20.2254 -14.6946 35
    endloop
  endfacet
  facet normal 0 0 1
    outer loop
      vertex 27.3363 -25.6705 35
      vertex 18.2242 -17.1137 35
      vertex 23.9034 -28.8942 35
    endloop
  endfacet
  facet normal -0 0 1
    outer loop
      vertex 15.9356 -19.2628 35
      vertex 23.9034 -28.8942 35
      vertex 18.2242 -17.1137 35
    endloop
  endfacet
  facet normal 0 0 1
    outer loop
      vertex 23.9034 -28.8942 35
      vertex 15.9356 -19.2628 35
      vertex 20.0935 -31.6623 35
    endloop
  endfacet
  facet normal -0 0 1
    outer loop
      vertex 13.3957 -21.1082 35
      vertex 20.0935 -31.6623 35
      vertex 15.9356 -19.2628 35
    endloop
  endfacet
  facet normal 0 0 1
    outer loop
      vertex 20.0935 -31.6623 35
      vertex 13.3957 -21.1082 35
      vertex 15.9667 -33.931 35
    endloop
  endfacet
  facet normal -0 0 1
    outer loop
      vertex 10.6445 -22.6207 35
      vertex 15.9667 -33.931 35
      vertex 13.3957 -21.1082 35
    endloop
  endfacet
  facet normal 0 0 1
    outer loop
      vertex 15.9667 -33.931 35
      vertex 10.6445 -22.6207 35
      vertex 11.5881 -35.6646 35
    endloop
  endfacet
  facet normal -0 0 1
    outer loop
      vertex 7.72542 -23.7764 35
      vertex 11.5881 -35.6646 35
      vertex 10.6445 -22.6207 35
    endloop
  endfacet
  facet normal 0 0 1
    outer loop
      vertex 7.72542 -23.7764 35
      vertex 7.0268 -36.8358 35
      vertex 11.5881 -35.6646 35
    endloop
  endfacet
  facet normal -0 0 1
    outer loop
      vertex 4.68453 -24.5572 35
      vertex 7.0268 -36.8358 35
      vertex 7.72542 -23.7764 35
    endloop
  endfacet
  facet normal 0 0 1
    outer loop
      vertex 4.68453 -24.5572 35
      vertex 2.35464 -37.426 35
      vertex 7.0268 -36.8358 35
    endloop
  endfacet
  facet normal -0 0 1
    outer loop
      vertex 1.56976 -24.9507 35
      vertex 2.35464 -37.426 35
      vertex 4.68453 -24.5572 35
    endloop
  endfacet
  facet normal -0 0 1
    outer loop
      vertex -1.56976 -24.9507 35
      vertex 2.35464 -37.426 35
      vertex 1.56976 -24.9507 35
    endloop
  endfacet
  facet normal 0 0 1
    outer loop
      vertex -1.56976 -24.9507 35
      vertex -2.35464 -37.426 35
      vertex 2.35464 -37.426 35
    endloop
  endfacet
  facet normal 0 0 1
    outer loop
      vertex -4.68453 -24.5572 35
      vertex -2.35464 -37.426 35
      vertex -1.56976 -24.9507 35
    endloop
  endfacet
  facet normal 0 0 1
    outer loop
      vertex -4.68453 -24.5572 35
      vertex -7.0268 -36.8358 35
      vertex -2.35464 -37.426 35
    endloop
  endfacet
  facet normal 0 0 1
    outer loop
      vertex -7.72542 -23.7764 35
      vertex -7.0268 -36.8358 35
      vertex -4.68453 -24.5572 35
    endloop
  endfacet
  facet normal 0 0 1
    outer loop
      vertex -11.5881 -35.6646 35
      vertex -7.72542 -23.7764 35
      vertex -10.6445 -22.6207 35
    endloop
  endfacet
  facet normal 0 0 1
    outer loop
      vertex -7.72542 -23.7764 35
      vertex -11.5881 -35.6646 35
      vertex -7.0268 -36.8358 35
    endloop
  endfacet
  facet normal 0 0 1
    outer loop
      vertex -15.9667 -33.931 35
      vertex -10.6445 -22.6207 35
      vertex -13.3957 -21.1082 35
    endloop
  endfacet
  facet normal 0 0 1
    outer loop
      vertex -20.0935 -31.6623 35
      vertex -13.3957 -21.1082 35
      vertex -15.9356 -19.2628 35
    endloop
  endfacet
  facet normal 0 0 1
    outer loop
      vertex -10.6445 -22.6207 35
      vertex -15.9667 -33.931 35
      vertex -11.5881 -35.6646 35
    endloop
  endfacet
  facet normal 0 0 1
    outer loop
      vertex -23.9034 -28.8942 35
      vertex -15.9356 -19.2628 35
      vertex -18.2242 -17.1137 35
    endloop
  endfacet
  facet normal 0 0 1
    outer loop
      vertex -13.3957 -21.1082 35
      vertex -20.0935 -31.6623 35
      vertex -15.9667 -33.931 35
    endloop
  endfacet
  facet normal 0 0 1
    outer loop
      vertex -27.3363 -25.6705 35
      vertex -18.2242 -17.1137 35
      vertex -20.2254 -14.6946 35
    endloop
  endfacet
  facet normal 0 0 1
    outer loop
      vertex -30.3381 -22.0419 35
      vertex -20.2254 -14.6946 35
      vertex -21.9077 -12.0438 35
    endloop
  endfacet
  facet normal 0 0 1
    outer loop
      vertex -32.8615 -18.0658 35
      vertex -21.9077 -12.0438 35
      vertex -23.2444 -9.20311 35
    endloop
  endfacet
  facet normal 0 0 1
    outer loop
      vertex -15.9356 -19.2628 35
      vertex -23.9034 -28.8942 35
      vertex -20.0935 -31.6623 35
    endloop
  endfacet
  facet normal 0 0 1
    outer loop
      vertex -34.8666 -13.8047 35
      vertex -23.2444 -9.20311 35
      vertex -24.2146 -6.21725 35
    endloop
  endfacet
  facet normal 0 0 1
    outer loop
      vertex -36.3219 -9.32587 35
      vertex -24.2146 -6.21725 35
      vertex -24.8029 -3.13333 35
    endloop
  endfacet
  facet normal 0 0 1
    outer loop
      vertex -37.2043 -4.7 35
      vertex -24.8029 -3.13333 35
      vertex -25 0 35
    endloop
  endfacet
  facet normal 0 0 1
    outer loop
      vertex -23.2444 9.20311 35
      vertex -34.8666 13.8047 35
      vertex -24.2146 6.21725 35
    endloop
  endfacet
  facet normal 0 0 1
    outer loop
      vertex -18.2242 -17.1137 35
      vertex -27.3363 -25.6705 35
      vertex -23.9034 -28.8942 35
    endloop
  endfacet
  facet normal -0 0 1
    outer loop
      vertex -36.3219 9.32587 35
      vertex -24.2146 6.21725 35
      vertex -34.8666 13.8047 35
    endloop
  endfacet
  facet normal 0 0 1
    outer loop
      vertex -20.2254 -14.6946 35
      vertex -30.3381 -22.0419 35
      vertex -27.3363 -25.6705 35
    endloop
  endfacet
  facet normal 0 0 1
    outer loop
      vertex -24.2146 6.21725 35
      vertex -36.3219 9.32587 35
      vertex -24.8029 3.13333 35
    endloop
  endfacet
  facet normal 0 0 1
    outer loop
      vertex -21.9077 -12.0438 35
      vertex -32.8615 -18.0658 35
      vertex -30.3381 -22.0419 35
    endloop
  endfacet
  facet normal -0 0 1
    outer loop
      vertex -37.2043 4.7 35
      vertex -24.8029 3.13333 35
      vertex -36.3219 9.32587 35
    endloop
  endfacet
  facet normal 0 0 1
    outer loop
      vertex -23.2444 -9.20311 35
      vertex -34.8666 -13.8047 35
      vertex -32.8615 -18.0658 35
    endloop
  endfacet
  facet normal 0 0 1
    outer loop
      vertex -24.8029 3.13333 35
      vertex -37.2043 4.7 35
      vertex -25 0 35
    endloop
  endfacet
  facet normal 0 0 1
    outer loop
      vertex -24.2146 -6.21725 35
      vertex -36.3219 -9.32587 35
      vertex -34.8666 -13.8047 35
    endloop
  endfacet
  facet normal 0 0 1
    outer loop
      vertex -37.5 0 35
      vertex -25 0 35
      vertex -37.2043 4.7 35
    endloop
  endfacet
  facet normal 0 0 1
    outer loop
      vertex -24.8029 -3.13333 35
      vertex -37.2043 -4.7 35
      vertex -36.3219 -9.32587 35
    endloop
  endfacet
  facet normal 0 0 1
    outer loop
      vertex -25 0 35
      vertex -37.5 0 35
      vertex -37.2043 -4.7 35
    endloop
  endfacet
  facet normal -0.951057 0.309017 0
    outer loop
      vertex -36.3219 9.32587 0
      vertex -34.8666 13.8047 35
      vertex -34.8666 13.8047 0
    endloop
  endfacet
  facet normal -0.951057 0.309017 0
    outer loop
      vertex -34.8666 13.8047 35
      vertex -36.3219 9.32587 0
      vertex -36.3219 9.32587 35
    endloop
  endfacet
  facet normal -0.982287 0.187381 0
    outer loop
      vertex -37.2043 4.7 0
      vertex -36.3219 9.32587 35
      vertex -36.3219 9.32587 0
    endloop
  endfacet
  facet normal -0.982287 0.187381 0
    outer loop
      vertex -36.3219 9.32587 35
      vertex -37.2043 4.7 0
      vertex -37.2043 4.7 35
    endloop
  endfacet
  facet normal -0.844328 0.535827 0
    outer loop
      vertex -32.8615 18.0658 0
      vertex -30.3381 22.0419 35
      vertex -30.3381 22.0419 0
    endloop
  endfacet
  facet normal -0.844328 0.535827 0
    outer loop
      vertex -30.3381 22.0419 35
      vertex -32.8615 18.0658 0
      vertex -32.8615 18.0658 35
    endloop
  endfacet
  facet normal -0.248689 0.968583 0
    outer loop
      vertex -7.0268 36.8358 0
      vertex -11.5881 35.6646 35
      vertex -7.0268 36.8358 35
    endloop
  endfacet
  facet normal -0.248689 0.968583 0
    outer loop
      vertex -11.5881 35.6646 35
      vertex -7.0268 36.8358 0
      vertex -11.5881 35.6646 0
    endloop
  endfacet
  facet normal -0.587785 0.809017 0
    outer loop
      vertex -20.0935 31.6623 0
      vertex -23.9034 28.8942 35
      vertex -20.0935 31.6623 35
    endloop
  endfacet
  facet normal -0.587785 0.809017 0
    outer loop
      vertex -23.9034 28.8942 35
      vertex -20.0935 31.6623 0
      vertex -23.9034 28.8942 0
    endloop
  endfacet
  facet normal -0.481754 0.876307 0
    outer loop
      vertex -15.9667 33.931 0
      vertex -20.0935 31.6623 35
      vertex -15.9667 33.931 35
    endloop
  endfacet
  facet normal -0.481754 0.876307 0
    outer loop
      vertex -20.0935 31.6623 35
      vertex -15.9667 33.931 0
      vertex -20.0935 31.6623 0
    endloop
  endfacet
  facet normal 0.998027 0.0627908 0
    outer loop
      vertex 37.5 0 35
      vertex 37.2043 4.7 9.9
      vertex 37.2043 4.7 35
    endloop
  endfacet
  facet normal 0.998027 0.0627908 0
    outer loop
      vertex 37.2043 4.7 9.9
      vertex 37.5 0 35
      vertex 37.5 0 9.9
    endloop
  endfacet
  facet normal 0.951057 -0.309017 0
    outer loop
      vertex 34.8666 -13.8047 35
      vertex 36.3219 -9.32587 0
      vertex 36.3219 -9.32587 35
    endloop
  endfacet
  facet normal 0.951057 -0.309017 0
    outer loop
      vertex 36.3219 -9.32587 0
      vertex 34.8666 -13.8047 35
      vertex 34.8666 -13.8047 0
    endloop
  endfacet
  facet normal 0 -1 0
    outer loop
      vertex -2.35464 -37.426 0
      vertex 2.35464 -37.426 35
      vertex -2.35464 -37.426 35
    endloop
  endfacet
  facet normal 0 -1 -0
    outer loop
      vertex 2.35464 -37.426 35
      vertex -2.35464 -37.426 0
      vertex 2.35464 -37.426 0
    endloop
  endfacet
  facet normal -0.998027 -0.0627908 0
    outer loop
      vertex -37.2043 -4.7 0
      vertex -37.5 0 35
      vertex -37.5 0 0
    endloop
  endfacet
  facet normal -0.998027 -0.0627908 0
    outer loop
      vertex -37.5 0 35
      vertex -37.2043 -4.7 0
      vertex -37.2043 -4.7 35
    endloop
  endfacet
  facet normal 0 0 -1
    outer loop
      vertex 27.3363 -25.6705 0
      vertex 30 -17.5 0
      vertex 30.3381 -22.0419 0
    endloop
  endfacet
  facet normal 0 0 -1
    outer loop
      vertex 23.9034 -28.8942 0
      vertex 30 -17.5 0
      vertex 27.3363 -25.6705 0
    endloop
  endfacet
  facet normal 0 0 -1
    outer loop
      vertex 20.0935 -31.6623 0
      vertex 30 -17.5 0
      vertex 23.9034 -28.8942 0
    endloop
  endfacet
  facet normal 0 0 -1
    outer loop
      vertex 15.9667 -33.931 0
      vertex 30 -17.5 0
      vertex 20.0935 -31.6623 0
    endloop
  endfacet
  facet normal 0 0 -1
    outer loop
      vertex 11.5881 -35.6646 0
      vertex 30 -17.5 0
      vertex 15.9667 -33.931 0
    endloop
  endfacet
  facet normal 0 0 -1
    outer loop
      vertex 7.0268 -36.8358 0
      vertex 30 -17.5 0
      vertex 11.5881 -35.6646 0
    endloop
  endfacet
  facet normal 0 0 -1
    outer loop
      vertex 2.35464 -37.426 0
      vertex 30 -17.5 0
      vertex 7.0268 -36.8358 0
    endloop
  endfacet
  facet normal 0 0 -1
    outer loop
      vertex -2.35464 -37.426 0
      vertex 30 -17.5 0
      vertex 2.35464 -37.426 0
    endloop
  endfacet
  facet normal 0 0 -1
    outer loop
      vertex -30 -17.5 0
      vertex -2.35464 -37.426 0
      vertex -7.0268 -36.8358 0
    endloop
  endfacet
  facet normal 0 0 -1
    outer loop
      vertex -30 -17.5 0
      vertex -7.0268 -36.8358 0
      vertex -11.5881 -35.6646 0
    endloop
  endfacet
  facet normal 0 0 -1
    outer loop
      vertex -30 -17.5 0
      vertex -11.5881 -35.6646 0
      vertex -15.9667 -33.931 0
    endloop
  endfacet
  facet normal 0 0 -1
    outer loop
      vertex -30 -17.5 0
      vertex -15.9667 -33.931 0
      vertex -20.0935 -31.6623 0
    endloop
  endfacet
  facet normal 0 0 -1
    outer loop
      vertex -30 -17.5 0
      vertex -20.0935 -31.6623 0
      vertex -23.9034 -28.8942 0
    endloop
  endfacet
  facet normal 0 0 -1
    outer loop
      vertex -30 -17.5 0
      vertex -23.9034 -28.8942 0
      vertex -27.3363 -25.6705 0
    endloop
  endfacet
  facet normal 0 0 -1
    outer loop
      vertex -2.35464 -37.426 0
      vertex -30 -17.5 0
      vertex 30 -17.5 0
    endloop
  endfacet
  facet normal 0 0 -1
    outer loop
      vertex -32.8615 -18.0658 0
      vertex -30 -17.5 0
      vertex -30.3381 -22.0419 0
    endloop
  endfacet
  facet normal 0 0 -1
    outer loop
      vertex -30.3381 -22.0419 0
      vertex -30 -17.5 0
      vertex -27.3363 -25.6705 0
    endloop
  endfacet
  facet normal 0 0 -1
    outer loop
      vertex 30 -7.5 0
      vertex 36.3219 -9.32587 0
      vertex 34.8666 -13.8047 0
    endloop
  endfacet
  facet normal 0 0 -1
    outer loop
      vertex 30 -17.5 0
      vertex 34.8666 -13.8047 0
      vertex 32.8615 -18.0658 0
    endloop
  endfacet
  facet normal 0 0 -1
    outer loop
      vertex 30 -17.5 0
      vertex 32.8615 -18.0658 0
      vertex 30.3381 -22.0419 0
    endloop
  endfacet
  facet normal -0 0 -1
    outer loop
      vertex 34.8666 -13.8047 0
      vertex 30 -17.5 0
      vertex 30 -7.5 0
    endloop
  endfacet
  facet normal 0 0 -1
    outer loop
      vertex 36.3219 -9.32587 0
      vertex 30 -7.5 0
      vertex 36.6702 -7.5 0
    endloop
  endfacet
  facet normal 0 0 -1
    outer loop
      vertex 30 7.5 0
      vertex 36.3219 9.32587 0
      vertex 36.6702 7.5 0
    endloop
  endfacet
  facet normal -0 0 -1
    outer loop
      vertex 36.3219 9.32587 0
      vertex 30 7.5 0
      vertex 34.8666 13.8047 0
    endloop
  endfacet
  facet normal 0 0 -1
    outer loop
      vertex 30 17.5 0
      vertex 34.8666 13.8047 0
      vertex 30 7.5 0
    endloop
  endfacet
  facet normal 0 0 -1
    outer loop
      vertex 34.8666 13.8047 0
      vertex 30 17.5 0
      vertex 32.8615 18.0658 0
    endloop
  endfacet
  facet normal -0 0 -1
    outer loop
      vertex 32.8615 18.0658 0
      vertex 30 17.5 0
      vertex 30.3381 22.0419 0
    endloop
  endfacet
  facet normal 0 0 -1
    outer loop
      vertex 30 17.5 0
      vertex 27.3363 25.6705 0
      vertex 30.3381 22.0419 0
    endloop
  endfacet
  facet normal 0 0 -1
    outer loop
      vertex 30 17.5 0
      vertex 23.9034 28.8942 0
      vertex 27.3363 25.6705 0
    endloop
  endfacet
  facet normal 0 0 -1
    outer loop
      vertex 30 17.5 0
      vertex 20.0935 31.6623 0
      vertex 23.9034 28.8942 0
    endloop
  endfacet
  facet normal 0 0 -1
    outer loop
      vertex 30 17.5 0
      vertex 15.9667 33.931 0
      vertex 20.0935 31.6623 0
    endloop
  endfacet
  facet normal 0 0 -1
    outer loop
      vertex 30 17.5 0
      vertex 11.5881 35.6646 0
      vertex 15.9667 33.931 0
    endloop
  endfacet
  facet normal 0 0 -1
    outer loop
      vertex 30 17.5 0
      vertex 7.0268 36.8358 0
      vertex 11.5881 35.6646 0
    endloop
  endfacet
  facet normal 0 0 -1
    outer loop
      vertex 30 17.5 0
      vertex 2.35464 37.426 0
      vertex 7.0268 36.8358 0
    endloop
  endfacet
  facet normal 0 0 -1
    outer loop
      vertex 30 17.5 0
      vertex -2.35464 37.426 0
      vertex 2.35464 37.426 0
    endloop
  endfacet
  facet normal 0 0 -1
    outer loop
      vertex -30 17.5 0
      vertex -2.35464 37.426 0
      vertex 30 17.5 0
    endloop
  endfacet
  facet normal 0 0 -1
    outer loop
      vertex -2.35464 37.426 0
      vertex -30 17.5 0
      vertex -7.0268 36.8358 0
    endloop
  endfacet
  facet normal 0 0 -1
    outer loop
      vertex -7.0268 36.8358 0
      vertex -30 17.5 0
      vertex -11.5881 35.6646 0
    endloop
  endfacet
  facet normal 0 0 -1
    outer loop
      vertex -11.5881 35.6646 0
      vertex -30 17.5 0
      vertex -15.9667 33.931 0
    endloop
  endfacet
  facet normal 0 0 -1
    outer loop
      vertex -15.9667 33.931 0
      vertex -30 17.5 0
      vertex -20.0935 31.6623 0
    endloop
  endfacet
  facet normal 0 0 -1
    outer loop
      vertex -20.0935 31.6623 0
      vertex -30 17.5 0
      vertex -23.9034 28.8942 0
    endloop
  endfacet
  facet normal 0 0 -1
    outer loop
      vertex -23.9034 28.8942 0
      vertex -30 17.5 0
      vertex -27.3363 25.6705 0
    endloop
  endfacet
  facet normal 0 0 -1
    outer loop
      vertex -30 17.5 0
      vertex -30.3381 22.0419 0
      vertex -27.3363 25.6705 0
    endloop
  endfacet
  facet normal 0 0 -1
    outer loop
      vertex -34.8666 -13.8047 0
      vertex -30 -17.5 0
      vertex -32.8615 -18.0658 0
    endloop
  endfacet
  facet normal 0 0 -1
    outer loop
      vertex -36.3219 -9.32587 0
      vertex -30 -17.5 0
      vertex -34.8666 -13.8047 0
    endloop
  endfacet
  facet normal 0 0 -1
    outer loop
      vertex -30 17.5 0
      vertex -32.8615 18.0658 0
      vertex -30.3381 22.0419 0
    endloop
  endfacet
  facet normal 0 0 -1
    outer loop
      vertex -37.2043 -4.7 0
      vertex -30 -17.5 0
      vertex -36.3219 -9.32587 0
    endloop
  endfacet
  facet normal -0 0 -1
    outer loop
      vertex -30 17.5 0
      vertex -34.8666 13.8047 0
      vertex -32.8615 18.0658 0
    endloop
  endfacet
  facet normal 0 0 -1
    outer loop
      vertex -37.5 0 0
      vertex -30 -17.5 0
      vertex -37.2043 -4.7 0
    endloop
  endfacet
  facet normal 0 0 -1
    outer loop
      vertex -30 17.5 0
      vertex -36.3219 9.32587 0
      vertex -34.8666 13.8047 0
    endloop
  endfacet
  facet normal 0 0 -1
    outer loop
      vertex -30 -17.5 0
      vertex -37.5 0 0
      vertex -30 17.5 0
    endloop
  endfacet
  facet normal 0 0 -1
    outer loop
      vertex -30 17.5 0
      vertex -37.2043 4.7 0
      vertex -36.3219 9.32587 0
    endloop
  endfacet
  facet normal 0 0 -1
    outer loop
      vertex -30 17.5 0
      vertex -37.5 0 0
      vertex -37.2043 4.7 0
    endloop
  endfacet
  facet normal -0.904827 -0.42578 0
    outer loop
      vertex -32.8615 -18.0658 0
      vertex -34.8666 -13.8047 35
      vertex -34.8666 -13.8047 0
    endloop
  endfacet
  facet normal -0.904827 -0.42578 0
    outer loop
      vertex -34.8666 -13.8047 35
      vertex -32.8615 -18.0658 0
      vertex -32.8615 -18.0658 35
    endloop
  endfacet
  facet normal 0.125334 -0.992115 0
    outer loop
      vertex 2.35464 -37.426 0
      vertex 7.0268 -36.8358 35
      vertex 2.35464 -37.426 35
    endloop
  endfacet
  facet normal 0.125334 -0.992115 0
    outer loop
      vertex 7.0268 -36.8358 35
      vertex 2.35464 -37.426 0
      vertex 7.0268 -36.8358 0
    endloop
  endfacet
  facet normal 0.368124 -0.929777 0
    outer loop
      vertex 11.5881 -35.6646 0
      vertex 15.9667 -33.931 35
      vertex 11.5881 -35.6646 35
    endloop
  endfacet
  facet normal 0.368124 -0.929777 0
    outer loop
      vertex 15.9667 -33.931 35
      vertex 11.5881 -35.6646 0
      vertex 15.9667 -33.931 0
    endloop
  endfacet
  facet normal 0.982287 0.18738 0
    outer loop
      vertex 36.3219 9.32587 35
      vertex 36.6702 7.5 9.9
      vertex 36.3219 9.32587 0
    endloop
  endfacet
  facet normal 0.982287 0.187381 -7.09273e-08
    outer loop
      vertex 37.2043 4.7 35
      vertex 36.6702 7.5 9.9
      vertex 36.3219 9.32587 35
    endloop
  endfacet
  facet normal 0.982287 0.187382 0
    outer loop
      vertex 36.6702 7.5 9.9
      vertex 37.2043 4.7 35
      vertex 37.2043 4.7 9.9
    endloop
  endfacet
  facet normal 0.982287 0.18738 0
    outer loop
      vertex 36.3219 9.32587 0
      vertex 36.6702 7.5 9.9
      vertex 36.6702 7.5 0
    endloop
  endfacet
  facet normal 0.982287 -0.187382 0
    outer loop
      vertex 37.2043 -4.7 35
      vertex 36.6702 -7.5 9.9
      vertex 37.2043 -4.7 9.9
    endloop
  endfacet
  facet normal 0.982287 -0.187381 -7.09273e-08
    outer loop
      vertex 36.3219 -9.32587 35
      vertex 36.6702 -7.5 9.9
      vertex 37.2043 -4.7 35
    endloop
  endfacet
  facet normal 0.982287 -0.18738 0
    outer loop
      vertex 36.3219 -9.32587 0
      vertex 36.6702 -7.5 9.9
      vertex 36.3219 -9.32587 35
    endloop
  endfacet
  facet normal 0.982287 -0.18738 0
    outer loop
      vertex 36.6702 -7.5 9.9
      vertex 36.3219 -9.32587 0
      vertex 36.6702 -7.5 0
    endloop
  endfacet
  facet normal -0.248689 -0.968583 0
    outer loop
      vertex -11.5881 -35.6646 0
      vertex -7.0268 -36.8358 35
      vertex -11.5881 -35.6646 35
    endloop
  endfacet
  facet normal -0.248689 -0.968583 -0
    outer loop
      vertex -7.0268 -36.8358 35
      vertex -11.5881 -35.6646 0
      vertex -7.0268 -36.8358 0
    endloop
  endfacet
  facet normal -0.951057 -0.309017 0
    outer loop
      vertex -34.8666 -13.8047 0
      vertex -36.3219 -9.32587 35
      vertex -36.3219 -9.32587 0
    endloop
  endfacet
  facet normal -0.951057 -0.309017 0
    outer loop
      vertex -36.3219 -9.32587 35
      vertex -34.8666 -13.8047 0
      vertex -34.8666 -13.8047 35
    endloop
  endfacet
  facet normal -0.982287 -0.187381 0
    outer loop
      vertex -36.3219 -9.32587 0
      vertex -37.2043 -4.7 35
      vertex -37.2043 -4.7 0
    endloop
  endfacet
  facet normal -0.982287 -0.187381 0
    outer loop
      vertex -37.2043 -4.7 35
      vertex -36.3219 -9.32587 0
      vertex -36.3219 -9.32587 35
    endloop
  endfacet
  facet normal 0.684547 -0.728969 0
    outer loop
      vertex 23.9034 -28.8942 0
      vertex 27.3363 -25.6705 35
      vertex 23.9034 -28.8942 35
    endloop
  endfacet
  facet normal 0.684547 -0.728969 0
    outer loop
      vertex 27.3363 -25.6705 35
      vertex 23.9034 -28.8942 0
      vertex 27.3363 -25.6705 0
    endloop
  endfacet
  facet normal 0.770513 -0.637424 0
    outer loop
      vertex 27.3363 -25.6705 35
      vertex 30.3381 -22.0419 0
      vertex 30.3381 -22.0419 35
    endloop
  endfacet
  facet normal 0.770513 -0.637424 0
    outer loop
      vertex 30.3381 -22.0419 0
      vertex 27.3363 -25.6705 35
      vertex 27.3363 -25.6705 0
    endloop
  endfacet
  facet normal 0.844328 -0.535827 0
    outer loop
      vertex 30.3381 -22.0419 35
      vertex 32.8615 -18.0658 0
      vertex 32.8615 -18.0658 35
    endloop
  endfacet
  facet normal 0.844328 -0.535827 0
    outer loop
      vertex 32.8615 -18.0658 0
      vertex 30.3381 -22.0419 35
      vertex 30.3381 -22.0419 0
    endloop
  endfacet
  facet normal 0.248689 -0.968583 0
    outer loop
      vertex 7.0268 -36.8358 0
      vertex 11.5881 -35.6646 35
      vertex 7.0268 -36.8358 35
    endloop
  endfacet
  facet normal 0.248689 -0.968583 0
    outer loop
      vertex 11.5881 -35.6646 35
      vertex 7.0268 -36.8358 0
      vertex 11.5881 -35.6646 0
    endloop
  endfacet
  facet normal -0.368124 -0.929777 0
    outer loop
      vertex -15.9667 -33.931 0
      vertex -11.5881 -35.6646 35
      vertex -15.9667 -33.931 35
    endloop
  endfacet
  facet normal -0.368124 -0.929777 -0
    outer loop
      vertex -11.5881 -35.6646 35
      vertex -15.9667 -33.931 0
      vertex -11.5881 -35.6646 0
    endloop
  endfacet
  facet normal -0.125334 -0.992115 0
    outer loop
      vertex -7.0268 -36.8358 0
      vertex -2.35464 -37.426 35
      vertex -7.0268 -36.8358 35
    endloop
  endfacet
  facet normal -0.125334 -0.992115 -0
    outer loop
      vertex -2.35464 -37.426 35
      vertex -7.0268 -36.8358 0
      vertex -2.35464 -37.426 0
    endloop
  endfacet
  facet normal -0.770513 -0.637424 0
    outer loop
      vertex -27.3363 -25.6705 0
      vertex -30.3381 -22.0419 35
      vertex -30.3381 -22.0419 0
    endloop
  endfacet
  facet normal -0.770513 -0.637424 0
    outer loop
      vertex -30.3381 -22.0419 35
      vertex -27.3363 -25.6705 0
      vertex -27.3363 -25.6705 35
    endloop
  endfacet
  facet normal -0.684547 -0.728969 0
    outer loop
      vertex -27.3363 -25.6705 0
      vertex -23.9034 -28.8942 35
      vertex -27.3363 -25.6705 35
    endloop
  endfacet
  facet normal -0.684547 -0.728969 -0
    outer loop
      vertex -23.9034 -28.8942 35
      vertex -27.3363 -25.6705 0
      vertex -23.9034 -28.8942 0
    endloop
  endfacet
  facet normal 0.587785 -0.809017 0
    outer loop
      vertex 20.0935 -31.6623 0
      vertex 23.9034 -28.8942 35
      vertex 20.0935 -31.6623 35
    endloop
  endfacet
  facet normal 0.587785 -0.809017 0
    outer loop
      vertex 23.9034 -28.8942 35
      vertex 20.0935 -31.6623 0
      vertex 23.9034 -28.8942 0
    endloop
  endfacet
  facet normal 0.904827 -0.42578 0
    outer loop
      vertex 32.8615 -18.0658 35
      vertex 34.8666 -13.8047 0
      vertex 34.8666 -13.8047 35
    endloop
  endfacet
  facet normal 0.904827 -0.42578 0
    outer loop
      vertex 34.8666 -13.8047 0
      vertex 32.8615 -18.0658 35
      vertex 32.8615 -18.0658 0
    endloop
  endfacet
  facet normal -0.844328 -0.535827 0
    outer loop
      vertex -30.3381 -22.0419 0
      vertex -32.8615 -18.0658 35
      vertex -32.8615 -18.0658 0
    endloop
  endfacet
  facet normal -0.844328 -0.535827 0
    outer loop
      vertex -32.8615 -18.0658 35
      vertex -30.3381 -22.0419 0
      vertex -30.3381 -22.0419 35
    endloop
  endfacet
  facet normal -0.481754 -0.876307 0
    outer loop
      vertex -20.0935 -31.6623 0
      vertex -15.9667 -33.931 35
      vertex -20.0935 -31.6623 35
    endloop
  endfacet
  facet normal -0.481754 -0.876307 -0
    outer loop
      vertex -15.9667 -33.931 35
      vertex -20.0935 -31.6623 0
      vertex -15.9667 -33.931 0
    endloop
  endfacet
  facet normal -0.587785 -0.809017 0
    outer loop
      vertex -23.9034 -28.8942 0
      vertex -20.0935 -31.6623 35
      vertex -23.9034 -28.8942 35
    endloop
  endfacet
  facet normal -0.587785 -0.809017 -0
    outer loop
      vertex -20.0935 -31.6623 35
      vertex -23.9034 -28.8942 0
      vertex -20.0935 -31.6623 0
    endloop
  endfacet
  facet normal -0.998027 -0.0627904 0
    outer loop
      vertex 25 0 29.9
      vertex 24.8029 3.13333 35
      vertex 24.8029 3.13333 29.9
    endloop
  endfacet
  facet normal -0.998027 -0.0627904 0
    outer loop
      vertex 24.8029 3.13333 35
      vertex 25 0 29.9
      vertex 25 0 35
    endloop
  endfacet
  facet normal 0.998027 -0.0627904 0
    outer loop
      vertex -25 0 35
      vertex -24.8029 3.13333 29.9
      vertex -24.8029 3.13333 35
    endloop
  endfacet
  facet normal 0.998027 -0.0627904 0
    outer loop
      vertex -24.8029 3.13333 29.9
      vertex -25 0 35
      vertex -25 0 29.9
    endloop
  endfacet
  facet normal 0 -1 0
    outer loop
      vertex -1.56976 24.9507 25
      vertex 1.56976 24.9507 35
      vertex -1.56976 24.9507 35
    endloop
  endfacet
  facet normal 0 -1 -0
    outer loop
      vertex 1.56976 24.9507 35
      vertex -1.56976 24.9507 25
      vertex 1.56976 24.9507 25
    endloop
  endfacet
  facet normal 0 1 -0
    outer loop
      vertex 1.56976 -24.9507 25
      vertex -1.56976 -24.9507 35
      vertex 1.56976 -24.9507 35
    endloop
  endfacet
  facet normal 0 1 0
    outer loop
      vertex -1.56976 -24.9507 35
      vertex 1.56976 -24.9507 25
      vertex -1.56976 -24.9507 25
    endloop
  endfacet
  facet normal -0.684547 -0.728969 9.41991e-08
    outer loop
      vertex 15.9356 19.2628 35
      vertex 17.8128 17.5 29.9
      vertex 18.2242 17.1137 35
    endloop
  endfacet
  facet normal -0.684547 -0.728969 0
    outer loop
      vertex 15.9356 19.2628 25
      vertex 17.8128 17.5 29.9
      vertex 15.9356 19.2628 35
    endloop
  endfacet
  facet normal -0.684547 -0.728969 -0
    outer loop
      vertex 17.8128 17.5 29.9
      vertex 15.9356 19.2628 25
      vertex 17.8128 17.5 25
    endloop
  endfacet
  facet normal -0.684546 -0.728969 -0
    outer loop
      vertex 18.2242 17.1137 35
      vertex 17.8128 17.5 29.9
      vertex 18.2242 17.1137 29.9
    endloop
  endfacet
  facet normal 0.684546 -0.728969 0
    outer loop
      vertex -17.8128 17.5 29.9
      vertex -18.2242 17.1137 35
      vertex -18.2242 17.1137 29.9
    endloop
  endfacet
  facet normal 0.684547 -0.728969 9.41991e-08
    outer loop
      vertex -18.2242 17.1137 35
      vertex -17.8128 17.5 29.9
      vertex -15.9356 19.2628 35
    endloop
  endfacet
  facet normal 0.684547 -0.728969 0
    outer loop
      vertex -15.9356 19.2628 25
      vertex -17.8128 17.5 29.9
      vertex -17.8128 17.5 25
    endloop
  endfacet
  facet normal 0.684547 -0.728969 0
    outer loop
      vertex -17.8128 17.5 29.9
      vertex -15.9356 19.2628 25
      vertex -15.9356 19.2628 35
    endloop
  endfacet
  facet normal 0.368125 -0.929776 0
    outer loop
      vertex -10.6445 22.6207 25
      vertex -7.72542 23.7764 35
      vertex -10.6445 22.6207 35
    endloop
  endfacet
  facet normal 0.368125 -0.929776 0
    outer loop
      vertex -7.72542 23.7764 35
      vertex -10.6445 22.6207 25
      vertex -7.72542 23.7764 25
    endloop
  endfacet
  facet normal -0.904827 -0.42578 0
    outer loop
      vertex 23.2444 9.20311 29.9
      vertex 21.9077 12.0438 35
      vertex 21.9077 12.0438 29.9
    endloop
  endfacet
  facet normal -0.904827 -0.42578 0
    outer loop
      vertex 21.9077 12.0438 35
      vertex 23.2444 9.20311 29.9
      vertex 23.2444 9.20311 35
    endloop
  endfacet
  facet normal -0.982287 -0.187382 0
    outer loop
      vertex 24.8029 3.13333 29.9
      vertex 24.2146 6.21725 35
      vertex 24.2146 6.21725 29.9
    endloop
  endfacet
  facet normal -0.982287 -0.187382 0
    outer loop
      vertex 24.2146 6.21725 35
      vertex 24.8029 3.13333 29.9
      vertex 24.8029 3.13333 35
    endloop
  endfacet
  facet normal -0.844328 -0.535826 0
    outer loop
      vertex 21.9077 12.0438 29.9
      vertex 20.2254 14.6946 35
      vertex 20.2254 14.6946 29.9
    endloop
  endfacet
  facet normal -0.844328 -0.535826 0
    outer loop
      vertex 20.2254 14.6946 35
      vertex 21.9077 12.0438 29.9
      vertex 21.9077 12.0438 35
    endloop
  endfacet
  facet normal -0.368125 -0.929776 0
    outer loop
      vertex 7.72542 23.7764 25
      vertex 10.6445 22.6207 35
      vertex 7.72542 23.7764 35
    endloop
  endfacet
  facet normal -0.368125 -0.929776 -0
    outer loop
      vertex 10.6445 22.6207 35
      vertex 7.72542 23.7764 25
      vertex 10.6445 22.6207 25
    endloop
  endfacet
  facet normal -0.24869 -0.968583 0
    outer loop
      vertex 4.68453 24.5572 25
      vertex 7.72542 23.7764 35
      vertex 4.68453 24.5572 35
    endloop
  endfacet
  facet normal -0.24869 -0.968583 -0
    outer loop
      vertex 7.72542 23.7764 35
      vertex 4.68453 24.5572 25
      vertex 7.72542 23.7764 25
    endloop
  endfacet
  facet normal -0.481754 -0.876306 0
    outer loop
      vertex 10.6445 22.6207 25
      vertex 13.3957 21.1082 35
      vertex 10.6445 22.6207 35
    endloop
  endfacet
  facet normal -0.481754 -0.876306 -0
    outer loop
      vertex 13.3957 21.1082 35
      vertex 10.6445 22.6207 25
      vertex 13.3957 21.1082 25
    endloop
  endfacet
  facet normal 0.904827 -0.42578 0
    outer loop
      vertex -23.2444 9.20311 35
      vertex -21.9077 12.0438 29.9
      vertex -21.9077 12.0438 35
    endloop
  endfacet
  facet normal 0.904827 -0.42578 0
    outer loop
      vertex -21.9077 12.0438 29.9
      vertex -23.2444 9.20311 35
      vertex -23.2444 9.20311 29.9
    endloop
  endfacet
  facet normal 0.770513 -0.637424 0
    outer loop
      vertex -20.2254 14.6946 35
      vertex -18.2242 17.1137 29.9
      vertex -18.2242 17.1137 35
    endloop
  endfacet
  facet normal 0.770513 -0.637424 0
    outer loop
      vertex -18.2242 17.1137 29.9
      vertex -20.2254 14.6946 35
      vertex -20.2254 14.6946 29.9
    endloop
  endfacet
  facet normal 0.951056 -0.309017 0
    outer loop
      vertex -24.2146 6.21725 35
      vertex -23.2444 9.20311 29.9
      vertex -23.2444 9.20311 35
    endloop
  endfacet
  facet normal 0.951056 -0.309017 0
    outer loop
      vertex -23.2444 9.20311 29.9
      vertex -24.2146 6.21725 35
      vertex -24.2146 6.21725 29.9
    endloop
  endfacet
  facet normal 0.125334 -0.992115 0
    outer loop
      vertex -4.68453 24.5572 25
      vertex -1.56976 24.9507 35
      vertex -4.68453 24.5572 35
    endloop
  endfacet
  facet normal 0.125334 -0.992115 0
    outer loop
      vertex -1.56976 24.9507 35
      vertex -4.68453 24.5572 25
      vertex -1.56976 24.9507 25
    endloop
  endfacet
  facet normal -0.125334 0.992115 0
    outer loop
      vertex 4.68453 -24.5572 25
      vertex 1.56976 -24.9507 35
      vertex 4.68453 -24.5572 35
    endloop
  endfacet
  facet normal -0.125334 0.992115 0
    outer loop
      vertex 1.56976 -24.9507 35
      vertex 4.68453 -24.5572 25
      vertex 1.56976 -24.9507 25
    endloop
  endfacet
  facet normal -0.951056 -0.309017 0
    outer loop
      vertex 24.2146 6.21725 29.9
      vertex 23.2444 9.20311 35
      vertex 23.2444 9.20311 29.9
    endloop
  endfacet
  facet normal -0.951056 -0.309017 0
    outer loop
      vertex 23.2444 9.20311 35
      vertex 24.2146 6.21725 29.9
      vertex 24.2146 6.21725 35
    endloop
  endfacet
  facet normal -0.770513 -0.637424 0
    outer loop
      vertex 20.2254 14.6946 29.9
      vertex 18.2242 17.1137 35
      vertex 18.2242 17.1137 29.9
    endloop
  endfacet
  facet normal -0.770513 -0.637424 0
    outer loop
      vertex 18.2242 17.1137 35
      vertex 20.2254 14.6946 29.9
      vertex 20.2254 14.6946 35
    endloop
  endfacet
  facet normal -0.125334 -0.992115 0
    outer loop
      vertex 1.56976 24.9507 25
      vertex 4.68453 24.5572 35
      vertex 1.56976 24.9507 35
    endloop
  endfacet
  facet normal -0.125334 -0.992115 -0
    outer loop
      vertex 4.68453 24.5572 35
      vertex 1.56976 24.9507 25
      vertex 4.68453 24.5572 25
    endloop
  endfacet
  facet normal -0.587785 -0.809017 0
    outer loop
      vertex 13.3957 21.1082 25
      vertex 15.9356 19.2628 35
      vertex 13.3957 21.1082 35
    endloop
  endfacet
  facet normal -0.587785 -0.809017 -0
    outer loop
      vertex 15.9356 19.2628 35
      vertex 13.3957 21.1082 25
      vertex 15.9356 19.2628 25
    endloop
  endfacet
  facet normal 0.844328 -0.535826 0
    outer loop
      vertex -21.9077 12.0438 35
      vertex -20.2254 14.6946 29.9
      vertex -20.2254 14.6946 35
    endloop
  endfacet
  facet normal 0.844328 -0.535826 0
    outer loop
      vertex -20.2254 14.6946 29.9
      vertex -21.9077 12.0438 35
      vertex -21.9077 12.0438 29.9
    endloop
  endfacet
  facet normal 0.982287 -0.187382 0
    outer loop
      vertex -24.8029 3.13333 35
      vertex -24.2146 6.21725 29.9
      vertex -24.2146 6.21725 35
    endloop
  endfacet
  facet normal 0.982287 -0.187382 0
    outer loop
      vertex -24.2146 6.21725 29.9
      vertex -24.8029 3.13333 35
      vertex -24.8029 3.13333 29.9
    endloop
  endfacet
  facet normal 0.481754 -0.876306 0
    outer loop
      vertex -13.3957 21.1082 25
      vertex -10.6445 22.6207 35
      vertex -13.3957 21.1082 35
    endloop
  endfacet
  facet normal 0.481754 -0.876306 0
    outer loop
      vertex -10.6445 22.6207 35
      vertex -13.3957 21.1082 25
      vertex -10.6445 22.6207 25
    endloop
  endfacet
  facet normal 0.587785 -0.809017 0
    outer loop
      vertex -15.9356 19.2628 25
      vertex -13.3957 21.1082 35
      vertex -15.9356 19.2628 35
    endloop
  endfacet
  facet normal 0.587785 -0.809017 0
    outer loop
      vertex -13.3957 21.1082 35
      vertex -15.9356 19.2628 25
      vertex -13.3957 21.1082 25
    endloop
  endfacet
  facet normal 0.24869 -0.968583 0
    outer loop
      vertex -7.72542 23.7764 25
      vertex -4.68453 24.5572 35
      vertex -7.72542 23.7764 35
    endloop
  endfacet
  facet normal 0.24869 -0.968583 0
    outer loop
      vertex -4.68453 24.5572 35
      vertex -7.72542 23.7764 25
      vertex -4.68453 24.5572 25
    endloop
  endfacet
  facet normal -0.982287 0.187382 0
    outer loop
      vertex 24.2146 -6.21725 29.9
      vertex 24.8029 -3.13333 35
      vertex 24.8029 -3.13333 29.9
    endloop
  endfacet
  facet normal -0.982287 0.187382 0
    outer loop
      vertex 24.8029 -3.13333 35
      vertex 24.2146 -6.21725 29.9
      vertex 24.2146 -6.21725 35
    endloop
  endfacet
  facet normal 0.904827 0.42578 0
    outer loop
      vertex -21.9077 -12.0438 35
      vertex -23.2444 -9.20311 29.9
      vertex -23.2444 -9.20311 35
    endloop
  endfacet
  facet normal 0.904827 0.42578 0
    outer loop
      vertex -23.2444 -9.20311 29.9
      vertex -21.9077 -12.0438 35
      vertex -21.9077 -12.0438 29.9
    endloop
  endfacet
  facet normal 0 0 1
    outer loop
      vertex 13.3957 21.1082 25
      vertex 17.8128 17.5 25
      vertex 15.9356 19.2628 25
    endloop
  endfacet
  facet normal 0 0 1
    outer loop
      vertex 10.6445 22.6207 25
      vertex 17.8128 17.5 25
      vertex 13.3957 21.1082 25
    endloop
  endfacet
  facet normal 0 0 1
    outer loop
      vertex 7.72542 23.7764 25
      vertex 17.8128 17.5 25
      vertex 10.6445 22.6207 25
    endloop
  endfacet
  facet normal 0 0 1
    outer loop
      vertex 4.68453 24.5572 25
      vertex 17.8128 17.5 25
      vertex 7.72542 23.7764 25
    endloop
  endfacet
  facet normal 0 0 1
    outer loop
      vertex 1.56976 24.9507 25
      vertex 17.8128 17.5 25
      vertex 4.68453 24.5572 25
    endloop
  endfacet
  facet normal -0 0 1
    outer loop
      vertex -1.56976 24.9507 25
      vertex 17.8128 17.5 25
      vertex 1.56976 24.9507 25
    endloop
  endfacet
  facet normal -0 0 1
    outer loop
      vertex -4.68453 24.5572 25
      vertex 17.8128 17.5 25
      vertex -1.56976 24.9507 25
    endloop
  endfacet
  facet normal -0 0 1
    outer loop
      vertex -7.72542 23.7764 25
      vertex 17.8128 17.5 25
      vertex -4.68453 24.5572 25
    endloop
  endfacet
  facet normal -0 0 1
    outer loop
      vertex -10.6445 22.6207 25
      vertex 17.8128 17.5 25
      vertex -7.72542 23.7764 25
    endloop
  endfacet
  facet normal -0 0 1
    outer loop
      vertex -13.3957 21.1082 25
      vertex 17.8128 17.5 25
      vertex -10.6445 22.6207 25
    endloop
  endfacet
  facet normal 0 0 1
    outer loop
      vertex -17.8128 17.5 25
      vertex -13.3957 21.1082 25
      vertex -15.9356 19.2628 25
    endloop
  endfacet
  facet normal 0 0 1
    outer loop
      vertex -13.3957 21.1082 25
      vertex -17.8128 17.5 25
      vertex 17.8128 17.5 25
    endloop
  endfacet
  facet normal 0 0 1
    outer loop
      vertex 17.8128 -17.5 25
      vertex 13.3957 -21.1082 25
      vertex 15.9356 -19.2628 25
    endloop
  endfacet
  facet normal 0 0 1
    outer loop
      vertex 17.8128 -17.5 25
      vertex 10.6445 -22.6207 25
      vertex 13.3957 -21.1082 25
    endloop
  endfacet
  facet normal 0 0 1
    outer loop
      vertex 17.8128 -17.5 25
      vertex 7.72542 -23.7764 25
      vertex 10.6445 -22.6207 25
    endloop
  endfacet
  facet normal 0 0 1
    outer loop
      vertex 17.8128 -17.5 25
      vertex 4.68453 -24.5572 25
      vertex 7.72542 -23.7764 25
    endloop
  endfacet
  facet normal 0 0 1
    outer loop
      vertex 17.8128 -17.5 25
      vertex 1.56976 -24.9507 25
      vertex 4.68453 -24.5572 25
    endloop
  endfacet
  facet normal 0 0 1
    outer loop
      vertex 17.8128 -17.5 25
      vertex -1.56976 -24.9507 25
      vertex 1.56976 -24.9507 25
    endloop
  endfacet
  facet normal 0 0 1
    outer loop
      vertex 17.8128 -17.5 25
      vertex -4.68453 -24.5572 25
      vertex -1.56976 -24.9507 25
    endloop
  endfacet
  facet normal 0 0 1
    outer loop
      vertex 17.8128 -17.5 25
      vertex -7.72542 -23.7764 25
      vertex -4.68453 -24.5572 25
    endloop
  endfacet
  facet normal 0 0 1
    outer loop
      vertex 17.8128 -17.5 25
      vertex -10.6445 -22.6207 25
      vertex -7.72542 -23.7764 25
    endloop
  endfacet
  facet normal 0 0 1
    outer loop
      vertex 17.8128 -17.5 25
      vertex -13.3957 -21.1082 25
      vertex -10.6445 -22.6207 25
    endloop
  endfacet
  facet normal -0 0 1
    outer loop
      vertex -17.8128 -17.5 25
      vertex -13.3957 -21.1082 25
      vertex 17.8128 -17.5 25
    endloop
  endfacet
  facet normal 0 0 1
    outer loop
      vertex -13.3957 -21.1082 25
      vertex -17.8128 -17.5 25
      vertex -15.9356 -19.2628 25
    endloop
  endfacet
  facet normal -0.481754 0.876306 0
    outer loop
      vertex 13.3957 -21.1082 25
      vertex 10.6445 -22.6207 35
      vertex 13.3957 -21.1082 35
    endloop
  endfacet
  facet normal -0.481754 0.876306 0
    outer loop
      vertex 10.6445 -22.6207 35
      vertex 13.3957 -21.1082 25
      vertex 10.6445 -22.6207 25
    endloop
  endfacet
  facet normal -0.904827 0.42578 0
    outer loop
      vertex 21.9077 -12.0438 29.9
      vertex 23.2444 -9.20311 35
      vertex 23.2444 -9.20311 29.9
    endloop
  endfacet
  facet normal -0.904827 0.42578 0
    outer loop
      vertex 23.2444 -9.20311 35
      vertex 21.9077 -12.0438 29.9
      vertex 21.9077 -12.0438 35
    endloop
  endfacet
  facet normal -0.998027 0.0627904 0
    outer loop
      vertex 24.8029 -3.13333 29.9
      vertex 25 0 35
      vertex 25 0 29.9
    endloop
  endfacet
  facet normal -0.998027 0.0627904 0
    outer loop
      vertex 25 0 35
      vertex 24.8029 -3.13333 29.9
      vertex 24.8029 -3.13333 35
    endloop
  endfacet
  facet normal 0.951056 0.309017 0
    outer loop
      vertex -23.2444 -9.20311 35
      vertex -24.2146 -6.21725 29.9
      vertex -24.2146 -6.21725 35
    endloop
  endfacet
  facet normal 0.951056 0.309017 0
    outer loop
      vertex -24.2146 -6.21725 29.9
      vertex -23.2444 -9.20311 35
      vertex -23.2444 -9.20311 29.9
    endloop
  endfacet
  facet normal 0.998027 0.0627904 0
    outer loop
      vertex -24.8029 -3.13333 35
      vertex -25 0 29.9
      vertex -25 0 35
    endloop
  endfacet
  facet normal 0.998027 0.0627904 0
    outer loop
      vertex -25 0 29.9
      vertex -24.8029 -3.13333 35
      vertex -24.8029 -3.13333 29.9
    endloop
  endfacet
  facet normal -0.684546 0.728969 0
    outer loop
      vertex 17.8128 -17.5 29.9
      vertex 18.2242 -17.1137 35
      vertex 18.2242 -17.1137 29.9
    endloop
  endfacet
  facet normal -0.684547 0.728969 9.41991e-08
    outer loop
      vertex 18.2242 -17.1137 35
      vertex 17.8128 -17.5 29.9
      vertex 15.9356 -19.2628 35
    endloop
  endfacet
  facet normal -0.684547 0.728969 0
    outer loop
      vertex 15.9356 -19.2628 25
      vertex 17.8128 -17.5 29.9
      vertex 17.8128 -17.5 25
    endloop
  endfacet
  facet normal -0.684547 0.728969 0
    outer loop
      vertex 17.8128 -17.5 29.9
      vertex 15.9356 -19.2628 25
      vertex 15.9356 -19.2628 35
    endloop
  endfacet
  facet normal -0.368125 0.929776 0
    outer loop
      vertex 10.6445 -22.6207 25
      vertex 7.72542 -23.7764 35
      vertex 10.6445 -22.6207 35
    endloop
  endfacet
  facet normal -0.368125 0.929776 0
    outer loop
      vertex 7.72542 -23.7764 35
      vertex 10.6445 -22.6207 25
      vertex 7.72542 -23.7764 25
    endloop
  endfacet
  facet normal -0.24869 0.968583 0
    outer loop
      vertex 7.72542 -23.7764 25
      vertex 4.68453 -24.5572 35
      vertex 7.72542 -23.7764 35
    endloop
  endfacet
  facet normal -0.24869 0.968583 0
    outer loop
      vertex 4.68453 -24.5572 35
      vertex 7.72542 -23.7764 25
      vertex 4.68453 -24.5572 25
    endloop
  endfacet
  facet normal -0.844328 0.535826 0
    outer loop
      vertex 20.2254 -14.6946 29.9
      vertex 21.9077 -12.0438 35
      vertex 21.9077 -12.0438 29.9
    endloop
  endfacet
  facet normal -0.844328 0.535826 0
    outer loop
      vertex 21.9077 -12.0438 35
      vertex 20.2254 -14.6946 29.9
      vertex 20.2254 -14.6946 35
    endloop
  endfacet
  facet normal -0.770513 0.637424 0
    outer loop
      vertex 18.2242 -17.1137 29.9
      vertex 20.2254 -14.6946 35
      vertex 20.2254 -14.6946 29.9
    endloop
  endfacet
  facet normal -0.770513 0.637424 0
    outer loop
      vertex 20.2254 -14.6946 35
      vertex 18.2242 -17.1137 29.9
      vertex 18.2242 -17.1137 35
    endloop
  endfacet
  facet normal -0.951056 0.309017 0
    outer loop
      vertex 23.2444 -9.20311 29.9
      vertex 24.2146 -6.21725 35
      vertex 24.2146 -6.21725 29.9
    endloop
  endfacet
  facet normal -0.951056 0.309017 0
    outer loop
      vertex 24.2146 -6.21725 35
      vertex 23.2444 -9.20311 29.9
      vertex 23.2444 -9.20311 35
    endloop
  endfacet
  facet normal 0.368125 0.929776 -0
    outer loop
      vertex -7.72542 -23.7764 25
      vertex -10.6445 -22.6207 35
      vertex -7.72542 -23.7764 35
    endloop
  endfacet
  facet normal 0.368125 0.929776 0
    outer loop
      vertex -10.6445 -22.6207 35
      vertex -7.72542 -23.7764 25
      vertex -10.6445 -22.6207 25
    endloop
  endfacet
  facet normal 0.24869 0.968583 -0
    outer loop
      vertex -4.68453 -24.5572 25
      vertex -7.72542 -23.7764 35
      vertex -4.68453 -24.5572 35
    endloop
  endfacet
  facet normal 0.24869 0.968583 0
    outer loop
      vertex -7.72542 -23.7764 35
      vertex -4.68453 -24.5572 25
      vertex -7.72542 -23.7764 25
    endloop
  endfacet
  facet normal 0.770513 0.637424 0
    outer loop
      vertex -18.2242 -17.1137 35
      vertex -20.2254 -14.6946 29.9
      vertex -20.2254 -14.6946 35
    endloop
  endfacet
  facet normal 0.770513 0.637424 0
    outer loop
      vertex -20.2254 -14.6946 29.9
      vertex -18.2242 -17.1137 35
      vertex -18.2242 -17.1137 29.9
    endloop
  endfacet
  facet normal 0.684547 0.728969 9.41991e-08
    outer loop
      vertex -15.9356 -19.2628 35
      vertex -17.8128 -17.5 29.9
      vertex -18.2242 -17.1137 35
    endloop
  endfacet
  facet normal 0.684547 0.728969 -0
    outer loop
      vertex -15.9356 -19.2628 25
      vertex -17.8128 -17.5 29.9
      vertex -15.9356 -19.2628 35
    endloop
  endfacet
  facet normal 0.684547 0.728969 0
    outer loop
      vertex -17.8128 -17.5 29.9
      vertex -15.9356 -19.2628 25
      vertex -17.8128 -17.5 25
    endloop
  endfacet
  facet normal 0.684546 0.728969 0
    outer loop
      vertex -18.2242 -17.1137 35
      vertex -17.8128 -17.5 29.9
      vertex -18.2242 -17.1137 29.9
    endloop
  endfacet
  facet normal 0.982287 0.187382 0
    outer loop
      vertex -24.2146 -6.21725 35
      vertex -24.8029 -3.13333 29.9
      vertex -24.8029 -3.13333 35
    endloop
  endfacet
  facet normal 0.982287 0.187382 0
    outer loop
      vertex -24.8029 -3.13333 29.9
      vertex -24.2146 -6.21725 35
      vertex -24.2146 -6.21725 29.9
    endloop
  endfacet
  facet normal -0.587785 0.809017 0
    outer loop
      vertex 15.9356 -19.2628 25
      vertex 13.3957 -21.1082 35
      vertex 15.9356 -19.2628 35
    endloop
  endfacet
  facet normal -0.587785 0.809017 0
    outer loop
      vertex 13.3957 -21.1082 35
      vertex 15.9356 -19.2628 25
      vertex 13.3957 -21.1082 25
    endloop
  endfacet
  facet normal 0.125334 0.992115 -0
    outer loop
      vertex -1.56976 -24.9507 25
      vertex -4.68453 -24.5572 35
      vertex -1.56976 -24.9507 35
    endloop
  endfacet
  facet normal 0.125334 0.992115 0
    outer loop
      vertex -4.68453 -24.5572 35
      vertex -1.56976 -24.9507 25
      vertex -4.68453 -24.5572 25
    endloop
  endfacet
  facet normal 0.844328 0.535826 0
    outer loop
      vertex -20.2254 -14.6946 35
      vertex -21.9077 -12.0438 29.9
      vertex -21.9077 -12.0438 35
    endloop
  endfacet
  facet normal 0.844328 0.535826 0
    outer loop
      vertex -21.9077 -12.0438 29.9
      vertex -20.2254 -14.6946 35
      vertex -20.2254 -14.6946 29.9
    endloop
  endfacet
  facet normal 0.481754 0.876306 -0
    outer loop
      vertex -10.6445 -22.6207 25
      vertex -13.3957 -21.1082 35
      vertex -10.6445 -22.6207 35
    endloop
  endfacet
  facet normal 0.481754 0.876306 0
    outer loop
      vertex -13.3957 -21.1082 35
      vertex -10.6445 -22.6207 25
      vertex -13.3957 -21.1082 25
    endloop
  endfacet
  facet normal 0.587785 0.809017 -0
    outer loop
      vertex -13.3957 -21.1082 25
      vertex -15.9356 -19.2628 35
      vertex -13.3957 -21.1082 35
    endloop
  endfacet
  facet normal 0.587785 0.809017 0
    outer loop
      vertex -15.9356 -19.2628 35
      vertex -13.3957 -21.1082 25
      vertex -15.9356 -19.2628 25
    endloop
  endfacet
  facet normal 1 -0 0
    outer loop
      vertex -30 -17.5 29.9
      vertex -30 17.5 0
      vertex -30 17.5 29.9
    endloop
  endfacet
  facet normal 1 0 0
    outer loop
      vertex -30 17.5 0
      vertex -30 -17.5 29.9
      vertex -30 -17.5 0
    endloop
  endfacet
  facet normal -0 0 -1
    outer loop
      vertex -24.8029 -3.13333 29.9
      vertex -30 -17.5 29.9
      vertex -25 0 29.9
    endloop
  endfacet
  facet normal -0 0 -1
    outer loop
      vertex -24.2146 -6.21725 29.9
      vertex -30 -17.5 29.9
      vertex -24.8029 -3.13333 29.9
    endloop
  endfacet
  facet normal -0 0 -1
    outer loop
      vertex -23.2444 -9.20311 29.9
      vertex -30 -17.5 29.9
      vertex -24.2146 -6.21725 29.9
    endloop
  endfacet
  facet normal -0 0 -1
    outer loop
      vertex -21.9077 -12.0438 29.9
      vertex -30 -17.5 29.9
      vertex -23.2444 -9.20311 29.9
    endloop
  endfacet
  facet normal -0 0 -1
    outer loop
      vertex -20.2254 -14.6946 29.9
      vertex -30 -17.5 29.9
      vertex -21.9077 -12.0438 29.9
    endloop
  endfacet
  facet normal -0 0 -1
    outer loop
      vertex -18.2242 -17.1137 29.9
      vertex -30 -17.5 29.9
      vertex -20.2254 -14.6946 29.9
    endloop
  endfacet
  facet normal 0 0 -1
    outer loop
      vertex -30 -17.5 29.9
      vertex -18.2242 -17.1137 29.9
      vertex -17.8128 -17.5 29.9
    endloop
  endfacet
  facet normal 0 0 -1
    outer loop
      vertex -30 17.5 29.9
      vertex -25 0 29.9
      vertex -30 -17.5 29.9
    endloop
  endfacet
  facet normal 0 0 -1
    outer loop
      vertex -25 0 29.9
      vertex -30 17.5 29.9
      vertex -24.8029 3.13333 29.9
    endloop
  endfacet
  facet normal 0 0 -1
    outer loop
      vertex -18.2242 17.1137 29.9
      vertex -30 17.5 29.9
      vertex -17.8128 17.5 29.9
    endloop
  endfacet
  facet normal 0 0 -1
    outer loop
      vertex -20.2254 14.6946 29.9
      vertex -30 17.5 29.9
      vertex -18.2242 17.1137 29.9
    endloop
  endfacet
  facet normal 0 0 -1
    outer loop
      vertex -21.9077 12.0438 29.9
      vertex -30 17.5 29.9
      vertex -20.2254 14.6946 29.9
    endloop
  endfacet
  facet normal 0 0 -1
    outer loop
      vertex -23.2444 9.20311 29.9
      vertex -30 17.5 29.9
      vertex -21.9077 12.0438 29.9
    endloop
  endfacet
  facet normal 0 0 -1
    outer loop
      vertex -24.2146 6.21725 29.9
      vertex -30 17.5 29.9
      vertex -23.2444 9.20311 29.9
    endloop
  endfacet
  facet normal 0 0 -1
    outer loop
      vertex -24.8029 3.13333 29.9
      vertex -30 17.5 29.9
      vertex -24.2146 6.21725 29.9
    endloop
  endfacet
  facet normal 0 0 -1
    outer loop
      vertex 30 -17.5 29.9
      vertex 25 0 29.9
      vertex 30 17.5 29.9
    endloop
  endfacet
  facet normal 0 0 -1
    outer loop
      vertex 30 -17.5 29.9
      vertex 24.8029 -3.13333 29.9
      vertex 25 0 29.9
    endloop
  endfacet
  facet normal 0 0 -1
    outer loop
      vertex 30 -17.5 29.9
      vertex 24.2146 -6.21725 29.9
      vertex 24.8029 -3.13333 29.9
    endloop
  endfacet
  facet normal 0 0 -1
    outer loop
      vertex 30 -17.5 29.9
      vertex 23.2444 -9.20311 29.9
      vertex 24.2146 -6.21725 29.9
    endloop
  endfacet
  facet normal 0 0 -1
    outer loop
      vertex 30 -17.5 29.9
      vertex 21.9077 -12.0438 29.9
      vertex 23.2444 -9.20311 29.9
    endloop
  endfacet
  facet normal 0 0 -1
    outer loop
      vertex 30 -17.5 29.9
      vertex 20.2254 -14.6946 29.9
      vertex 21.9077 -12.0438 29.9
    endloop
  endfacet
  facet normal 0 0 -1
    outer loop
      vertex 30 -17.5 29.9
      vertex 18.2242 -17.1137 29.9
      vertex 20.2254 -14.6946 29.9
    endloop
  endfacet
  facet normal 0 -0 -1
    outer loop
      vertex 18.2242 -17.1137 29.9
      vertex 30 -17.5 29.9
      vertex 17.8128 -17.5 29.9
    endloop
  endfacet
  facet normal 0 0 -1
    outer loop
      vertex 24.8029 3.13333 29.9
      vertex 30 17.5 29.9
      vertex 25 0 29.9
    endloop
  endfacet
  facet normal 0 0 -1
    outer loop
      vertex 24.2146 6.21725 29.9
      vertex 30 17.5 29.9
      vertex 24.8029 3.13333 29.9
    endloop
  endfacet
  facet normal 0 0 -1
    outer loop
      vertex 23.2444 9.20311 29.9
      vertex 30 17.5 29.9
      vertex 24.2146 6.21725 29.9
    endloop
  endfacet
  facet normal 0 0 -1
    outer loop
      vertex 21.9077 12.0438 29.9
      vertex 30 17.5 29.9
      vertex 23.2444 9.20311 29.9
    endloop
  endfacet
  facet normal 0 0 -1
    outer loop
      vertex 20.2254 14.6946 29.9
      vertex 30 17.5 29.9
      vertex 21.9077 12.0438 29.9
    endloop
  endfacet
  facet normal 0 0 -1
    outer loop
      vertex 18.2242 17.1137 29.9
      vertex 30 17.5 29.9
      vertex 20.2254 14.6946 29.9
    endloop
  endfacet
  facet normal -0 0 -1
    outer loop
      vertex 30 17.5 29.9
      vertex 18.2242 17.1137 29.9
      vertex 17.8128 17.5 29.9
    endloop
  endfacet
  facet normal -1 0 0
    outer loop
      vertex 30 -7.5 0
      vertex 30 -17.5 0
      vertex 30 -7.5 9.9
    endloop
  endfacet
  facet normal -1 0 0
    outer loop
      vertex 30 7.5 9.9
      vertex 30 17.5 0
      vertex 30 7.5 0
    endloop
  endfacet
  facet normal -1 0 0
    outer loop
      vertex 30 17.5 0
      vertex 30 7.5 9.9
      vertex 30 17.5 29.9
    endloop
  endfacet
  facet normal -1 0 0
    outer loop
      vertex 30 -7.5 9.9
      vertex 30 17.5 29.9
      vertex 30 7.5 9.9
    endloop
  endfacet
  facet normal -1 0 0
    outer loop
      vertex 30 -7.5 9.9
      vertex 30 -17.5 29.9
      vertex 30 17.5 29.9
    endloop
  endfacet
  facet normal -1 0 0
    outer loop
      vertex 30 -17.5 29.9
      vertex 30 -7.5 9.9
      vertex 30 -17.5 0
    endloop
  endfacet
  facet normal 0 -1 0
    outer loop
      vertex -30 17.5 29.9
      vertex -17.8128 17.5 25
      vertex -17.8128 17.5 29.9
    endloop
  endfacet
  facet normal 0 -1 -0
    outer loop
      vertex -17.8128 17.5 25
      vertex -30 17.5 0
      vertex 17.8128 17.5 25
    endloop
  endfacet
  facet normal 0 -1 0
    outer loop
      vertex -30 17.5 0
      vertex -17.8128 17.5 25
      vertex -30 17.5 29.9
    endloop
  endfacet
  facet normal 0 -1 0
    outer loop
      vertex 17.8128 17.5 25
      vertex 30 17.5 29.9
      vertex 17.8128 17.5 29.9
    endloop
  endfacet
  facet normal 0 -1 0
    outer loop
      vertex 30 17.5 0
      vertex 17.8128 17.5 25
      vertex -30 17.5 0
    endloop
  endfacet
  facet normal 0 -1 0
    outer loop
      vertex 17.8128 17.5 25
      vertex 30 17.5 0
      vertex 30 17.5 29.9
    endloop
  endfacet
  facet normal 0 1 0
    outer loop
      vertex 30 -17.5 29.9
      vertex 17.8128 -17.5 25
      vertex 17.8128 -17.5 29.9
    endloop
  endfacet
  facet normal 0 1 0
    outer loop
      vertex 17.8128 -17.5 25
      vertex 30 -17.5 0
      vertex -17.8128 -17.5 25
    endloop
  endfacet
  facet normal 0 1 -0
    outer loop
      vertex 30 -17.5 0
      vertex 17.8128 -17.5 25
      vertex 30 -17.5 29.9
    endloop
  endfacet
  facet normal 0 1 -0
    outer loop
      vertex -17.8128 -17.5 25
      vertex -30 -17.5 29.9
      vertex -17.8128 -17.5 29.9
    endloop
  endfacet
  facet normal 0 1 0
    outer loop
      vertex -30 -17.5 0
      vertex -17.8128 -17.5 25
      vertex 30 -17.5 0
    endloop
  endfacet
  facet normal 0 1 0
    outer loop
      vertex -17.8128 -17.5 25
      vertex -30 -17.5 0
      vertex -30 -17.5 29.9
    endloop
  endfacet
  facet normal 0 0 -1
    outer loop
      vertex 30 -7.5 9.9
      vertex 37.5 0 9.9
      vertex 37.2043 -4.7 9.9
    endloop
  endfacet
  facet normal 0 0 -1
    outer loop
      vertex 30 -7.5 9.9
      vertex 37.2043 -4.7 9.9
      vertex 36.6702 -7.5 9.9
    endloop
  endfacet
  facet normal 0 0 -1
    outer loop
      vertex 30 7.5 9.9
      vertex 37.5 0 9.9
      vertex 30 -7.5 9.9
    endloop
  endfacet
  facet normal 0 0 -1
    outer loop
      vertex 37.5 0 9.9
      vertex 30 7.5 9.9
      vertex 37.2043 4.7 9.9
    endloop
  endfacet
  facet normal 0 0 -1
    outer loop
      vertex 37.2043 4.7 9.9
      vertex 30 7.5 9.9
      vertex 36.6702 7.5 9.9
    endloop
  endfacet
  facet normal 0 -1 0
    outer loop
      vertex 30 7.5 0
      vertex 36.6702 7.5 9.9
      vertex 30 7.5 9.9
    endloop
  endfacet
  facet normal 0 -1 -0
    outer loop
      vertex 36.6702 7.5 9.9
      vertex 30 7.5 0
      vertex 36.6702 7.5 0
    endloop
  endfacet
  facet normal 0 1 -0
    outer loop
      vertex 36.6702 -7.5 0
      vertex 30 -7.5 9.9
      vertex 36.6702 -7.5 9.9
    endloop
  endfacet
  facet normal 0 1 0
    outer loop
      vertex 30 -7.5 9.9
      vertex 36.6702 -7.5 0
      vertex 30 -7.5 0
    endloop
  endfacet
endsolid OpenSCAD_Model
